<?xml version="1.0" encoding="UTF-8" standalone="no"?>
<svg width="800" height="600" viewBox="0 0 800 600" xmlns="http://www.w3.org/2000/svg">
  <defs>
    <radialGradient id="butterChicken" cx="50%" cy="50%" r="50%" fx="50%" fy="50%">
      <stop offset="0%" style="stop-color:#E06153;stop-opacity:1" />
      <stop offset="70%" style="stop-color:#CF4B3A;stop-opacity:1" />
      <stop offset="100%" style="stop-color:#A33629;stop-opacity:1" />
    </radialGradient>
    <radialGradient id="plate" cx="50%" cy="50%" r="65%" fx="50%" fy="50%">
      <stop offset="0%" style="stop-color:#F7F7F7;stop-opacity:1" />
      <stop offset="80%" style="stop-color:#E0E0E0;stop-opacity:1" />
      <stop offset="100%" style="stop-color:#C7C7C7;stop-opacity:1" />
    </radialGradient>
  </defs>
  <rect width="100%" height="100%" fill="#FDFBF7" />
  
  <!-- Plate -->
  <circle cx="400" cy="320" r="250" fill="url(#plate)" />
  
  <!-- Butter Chicken Sauce -->
  <ellipse cx="400" cy="320" rx="180" ry="160" fill="url(#butterChicken)" />
  
  <!-- Pasta -->
  <g fill="#FFF6D6">
    <path d="M300,260 C320,290 350,290 370,260" stroke="#FFF6D6" stroke-width="8" fill="none" />
    <path d="M320,280 C340,310 370,310 390,280" stroke="#FFF6D6" stroke-width="8" fill="none" />
    <path d="M340,300 C360,330 390,330 410,300" stroke="#FFF6D6" stroke-width="8" fill="none" />
    <path d="M360,320 C380,350 410,350 430,320" stroke="#FFF6D6" stroke-width="8" fill="none" />
    <path d="M380,340 C400,370 430,370 450,340" stroke="#FFF6D6" stroke-width="8" fill="none" />
    <path d="M400,320 C420,350 450,350 470,320" stroke="#FFF6D6" stroke-width="8" fill="none" />
    <path d="M420,300 C440,330 470,330 490,300" stroke="#FFF6D6" stroke-width="8" fill="none" />
    <path d="M440,280 C460,310 490,310 510,280" stroke="#FFF6D6" stroke-width="8" fill="none" />
  </g>
  
  <!-- Chicken Pieces -->
  <g fill="#D9A875">
    <rect x="340" y="270" width="20" height="15" rx="5" ry="5" />
    <rect x="380" y="300" width="25" height="18" rx="5" ry="5" />
    <rect x="420" y="290" width="22" height="16" rx="5" ry="5" />
    <rect x="370" y="320" width="21" height="14" rx="5" ry="5" />
    <rect x="440" y="330" width="23" height="17" rx="5" ry="5" />
    <rect x="400" y="340" width="19" height="13" rx="5" ry="5" />
  </g>
  
  <!-- Cream Swirl -->
  <path d="M320,280 C350,300 380,280 400,300 C420,320 450,300 480,320" 
        stroke="#F5F1E6" stroke-width="6" fill="none" />
  
  <!-- Cilantro -->
  <g fill="#2D5A27">
    <ellipse cx="320" cy="240" rx="7" ry="4" transform="rotate(30, 320, 240)" />
    <ellipse cx="480" cy="240" rx="7" ry="4" transform="rotate(-20, 480, 240)" />
    <ellipse cx="400" cy="230" rx="6" ry="3" />
    <ellipse cx="350" cy="330" rx="7" ry="4" transform="rotate(-15, 350, 330)" />
    <ellipse cx="450" cy="350" rx="7" ry="4" transform="rotate(25, 450, 350)" />
    <ellipse cx="390" cy="370" rx="6" ry="3" transform="rotate(-10, 390, 370)" />
  </g>
  
  <!-- Parmesan Cheese -->
  <g fill="#F5F1E6" opacity="0.8">
    <circle cx="360" cy="260" r="3" />
    <circle cx="420" cy="270" r="2" />
    <circle cx="380" cy="290" r="2" />
    <circle cx="440" cy="300" r="3" />
    <circle cx="390" cy="320" r="2" />
    <circle cx="450" cy="330" r="2" />
    <circle cx="410" cy="350" r="3" />
    <circle cx="370" cy="360" r="2" />
    <circle cx="430" cy="380" r="3" />
  </g>
</svg>