<?xml version="1.0" encoding="UTF-8" standalone="no"?>
<svg width="200" height="200" viewBox="0 0 200 200" xmlns="http://www.w3.org/2000/svg">
  <defs>
    <pattern id="food-pattern" x="0" y="0" width="50" height="50" patternUnits="userSpaceOnUse">
      <!-- Plate -->
      <circle cx="10" cy="10" r="6" fill="none" stroke="#333" stroke-width="0.5" opacity="0.2"/>
      
      <!-- Fork -->
      <path d="M30,5 L33,5 L33,15 L31.5,17 L31.5,25 L30,25 L30,5" fill="#333" opacity="0.15"/>
      <path d="M25,5 L25,10 L26,10 L26,5 L27,5 L27,10 L28,10 L28,5 L29,5 L29,10 C29,12 27,14 27,15 L27,25 L25,25 L25,15 C25,14 23,12 23,10 L23,5 L25,5" fill="#333" opacity="0.15"/>
      
      <!-- Spoon -->
      <ellipse cx="40" cy="8" rx="4" ry="3" fill="#333" opacity="0.15"/>
      <path d="M40,11 L40,25" stroke="#333" stroke-width="1.5" opacity="0.15"/>
      
      <!-- Chef's Hat -->
      <path d="M8,40 C8,36 12,36 12,38 C12,35 16,35 16,38 C16,35 20,35 20,38 C20,36 24,36 24,40 L24,45 L8,45 L8,40" fill="#333" opacity="0.15"/>
      
      <!-- Leaf -->
      <path d="M35,40 C38,35 45,38 42,45 C38,42 35,40 35,40" fill="#333" opacity="0.15"/>
    </pattern>
  </defs>
  
  <rect width="100%" height="100%" fill="url(#food-pattern)"/>
</svg>