<?xml version="1.0" encoding="UTF-8" standalone="no"?>
<svg width="800" height="600" viewBox="0 0 800 600" xmlns="http://www.w3.org/2000/svg">
  <defs>
    <linearGradient id="wallGrad" x1="0%" y1="0%" x2="0%" y2="100%">
      <stop offset="0%" style="stop-color:#F5F2E8;stop-opacity:1" />
      <stop offset="100%" style="stop-color:#E8D6BF;stop-opacity:1" />
    </linearGradient>
    <linearGradient id="floorGrad" x1="0%" y1="0%" x2="100%" y2="100%">
      <stop offset="0%" style="stop-color:#8B6C42;stop-opacity:1" />
      <stop offset="100%" style="stop-color:#6A4E28;stop-opacity:1" />
    </linearGradient>
  </defs>
  
  <!-- Background -->
  <rect width="100%" height="100%" fill="#FDFBF7" />
  
  <!-- Wall -->
  <rect x="0" y="0" width="800" height="350" fill="url(#wallGrad)" />
  
  <!-- Floor -->
  <rect x="0" y="350" width="800" height="250" fill="url(#floorGrad)" />
  
  <!-- Table 1 -->
  <ellipse cx="250" cy="450" rx="120" ry="60" fill="#5E3A1E" opacity="0.9" />
  <ellipse cx="250" cy="445" rx="115" ry="55" fill="#7D4B28" />
  
  <!-- Table 2 -->
  <ellipse cx="550" cy="480" rx="120" ry="60" fill="#5E3A1E" opacity="0.9" />
  <ellipse cx="550" cy="475" rx="115" ry="55" fill="#7D4B28" />
  
  <!-- Chair 1-1 -->
  <ellipse cx="150" cy="450" rx="30" ry="25" fill="#4A3C2A" />
  
  <!-- Chair 1-2 -->
  <ellipse cx="350" cy="450" rx="30" ry="25" fill="#4A3C2A" />
  
  <!-- Chair 2-1 -->
  <ellipse cx="450" cy="480" rx="30" ry="25" fill="#4A3C2A" />
  
  <!-- Chair 2-2 -->
  <ellipse cx="650" cy="480" rx="30" ry="25" fill="#4A3C2A" />
  
  <!-- Plants -->
  <g transform="translate(50, 150)">
    <rect x="0" y="50" width="40" height="50" fill="#8D5B4C" />
    <g fill="#2D5A27">
      <path d="M20,0 C0,25 -10,60 20,50 C50,60 40,25 20,0" />
      <path d="M20,10 C0,35 -5,60 20,50 C45,60 40,35 20,10" />
      <path d="M20,20 C5,40 0,60 20,50 C40,60 35,40 20,20" />
    </g>
  </g>
  
  <g transform="translate(700, 180)">
    <rect x="0" y="50" width="40" height="50" fill="#8D5B4C" />
    <g fill="#2D5A27">
      <path d="M20,0 C0,25 -10,60 20,50 C50,60 40,25 20,0" />
      <path d="M20,10 C0,35 -5,60 20,50 C45,60 40,35 20,10" />
      <path d="M20,20 C5,40 0,60 20,50 C40,60 35,40 20,20" />
    </g>
  </g>
  
  <!-- Hanging light 1 -->
  <line x1="250" y1="0" x2="250" y2="100" stroke="#333" stroke-width="2" />
  <ellipse cx="250" cy="120" rx="50" ry="20" fill="#CF4B3A" opacity="0.7" />
  <ellipse cx="250" cy="120" rx="40" ry="15" fill="#E8B87B" opacity="0.8" />
  
  <!-- Hanging light 2 -->
  <line x1="550" y1="0" x2="550" y2="150" stroke="#333" stroke-width="2" />
  <ellipse cx="550" cy="170" rx="50" ry="20" fill="#CF4B3A" opacity="0.7" />
  <ellipse cx="550" cy="170" rx="40" ry="15" fill="#E8B87B" opacity="0.8" />
  
  <!-- Wall art -->
  <rect x="400" y="100" width="80" height="100" fill="#2D5A27" />
  <rect x="405" y="105" width="70" height="90" fill="#F5F2E8" />
  
  <!-- Tables setups -->
  <circle cx="250" cy="445" r="25" fill="#F5F2E8" />
  <circle cx="550" cy="475" r="25" fill="#F5F2E8" />
  
  <!-- Plate 1 with food -->
  <circle cx="250" cy="445" r="20" fill="#FDFBF7" />
  <circle cx="250" cy="445" r="15" fill="#E8B87B" />
  
  <!-- Plate 2 with food -->
  <circle cx="550" cy="475" r="20" fill="#FDFBF7" />
  <circle cx="550" cy="475" r="15" fill="#CF4B3A" />
  
  <!-- Plants on walls -->
  <g transform="translate(150, 100)">
    <path d="M0,0 C10,20 30,30 50,0" stroke="#2D5A27" fill="none" stroke-width="5" />
    <path d="M10,10 C20,30 40,40 60,10" stroke="#2D5A27" fill="none" stroke-width="5" />
    <path d="M20,20 C30,40 50,50 70,20" stroke="#2D5A27" fill="none" stroke-width="5" />
  </g>
  
  <g transform="translate(600, 80)">
    <path d="M0,0 C10,20 30,30 50,0" stroke="#2D5A27" fill="none" stroke-width="5" />
    <path d="M10,10 C20,30 40,40 60,10" stroke="#2D5A27" fill="none" stroke-width="5" />
    <path d="M20,20 C30,40 50,50 70,20" stroke="#2D5A27" fill="none" stroke-width="5" />
  </g>
</svg>