<?xml version="1.0" encoding="UTF-8" standalone="no"?>
<svg width="800" height="600" viewBox="0 0 800 600" xmlns="http://www.w3.org/2000/svg">
  <defs>
    <radialGradient id="bowl" cx="50%" cy="50%" r="50%" fx="50%" fy="50%">
      <stop offset="0%" style="stop-color:#FFDC73;stop-opacity:1" />
      <stop offset="60%" style="stop-color:#FFB52E;stop-opacity:1" />
      <stop offset="100%" style="stop-color:#E8962A;stop-opacity:1" />
    </radialGradient>
    <radialGradient id="plate" cx="50%" cy="50%" r="65%" fx="50%" fy="50%">
      <stop offset="0%" style="stop-color:#F7F7F7;stop-opacity:1" />
      <stop offset="80%" style="stop-color:#E0E0E0;stop-opacity:1" />
      <stop offset="100%" style="stop-color:#C7C7C7;stop-opacity:1" />
    </radialGradient>
  </defs>
  <rect width="100%" height="100%" fill="#FDFBF7" />
  
  <!-- Plate -->
  <circle cx="400" cy="320" r="250" fill="url(#plate)" />
  
  <!-- Bowl of Risotto -->
  <circle cx="400" cy="300" r="150" fill="url(#bowl)" />
  
  <!-- Risotto Texture -->
  <g fill="#FFE68A" fill-opacity="0.6">
    <circle cx="350" cy="250" r="10" />
    <circle cx="380" cy="290" r="8" />
    <circle cx="420" cy="260" r="12" />
    <circle cx="440" cy="310" r="9" />
    <circle cx="390" cy="330" r="11" />
    <circle cx="360" cy="310" r="7" />
    <circle cx="410" cy="350" r="10" />
  </g>
  
  <!-- Garnish -->
  <g fill="#BF4342" opacity="0.8">
    <circle cx="380" cy="230" r="5" />
    <circle cx="430" cy="250" r="6" />
    <circle cx="410" cy="320" r="4" />
  </g>
  
  <!-- Herbs -->
  <g fill="#2D5A27" opacity="0.7">
    <ellipse cx="370" cy="240" rx="3" ry="10" transform="rotate(45, 370, 240)" />
    <ellipse cx="420" cy="270" rx="3" ry="12" transform="rotate(-30, 420, 270)" />
    <ellipse cx="400" cy="330" rx="2" ry="8" transform="rotate(15, 400, 330)" />
  </g>
</svg>